# xmcd CD database file
#
# Track frame offsets:
#	150
#	32767
#	55063
#	89445
#	141123
#	169776
#	189052
#
# Disc length: 2988 seconds
#
# Revision: 0
# Processed by: cddbd v1.5PL3 Copyright (c) Steve Scherf et al.
# Submitted via: CDex 1.51
#
DISCID=520baa07
DTITLE=Céline Rudolph and out of print - Book of Travels
DYEAR=1996
DGENRE=Jazz
TTITLE0=Solidão
TTITLE1=Drunken Penguin
TTITLE2=Earth Chant
TTITLE3=Danse Arabe
TTITLE4=Awakening
TTITLE5=Soumolé
TTITLE6=Cape Point
EXTD=YEAR: 1996
EXTT0=
EXTT1=
EXTT2=
EXTT3=
EXTT4=
EXTT5=
EXTT6=
PLAYORDER=
